<?xml version="1.0" encoding="utf-8"?>
<!-- Generator: Adobe Illustrator 19.0.0, SVG Export Plug-In . SVG Version: 6.00 Build 0)  -->
<svg version="1.1" id="Content" xmlns="http://www.w3.org/2000/svg" xmlns:xlink="http://www.w3.org/1999/xlink" x="0px" y="0px"
	 viewBox="0 0 1920 1080" style="enable-background:new 0 0 1920 1080;" xml:space="preserve">
<style type="text/css">
	.st0{fill:#FFF6C7;}
	.st1{fill:#091318;}
	.st2{fill:none;stroke:#324D51;stroke-width:5;stroke-linecap:round;stroke-miterlimit:10;}
	.st3{fill:#324D51;}
	.st4{fill:#F05123;}
	.st5{fill:#FAA343;}
	.st6{fill:none;stroke:#324D51;stroke-width:3;stroke-linecap:round;stroke-miterlimit:10;}
	.st7{fill:#578476;}
	.st8{fill:#47665A;}
	.st9{fill:#FFFFFF;}
	.st10{fill:none;stroke:#324D51;stroke-width:7;stroke-miterlimit:10;}
	.st11{opacity:0.66;fill:#FFFFFF;}
	.st12{fill:url(#XMLID_2_);}
	.st13{fill:url(#XMLID_4_);}
	.st14{fill:url(#XMLID_5_);}
	.st15{fill:url(#XMLID_6_);}
	.st16{fill:url(#XMLID_7_);}
	.st17{fill:url(#XMLID_8_);}
	.st18{fill:url(#XMLID_51_);}
	.st19{opacity:0.41;fill:url(#XMLID_52_);}
	.st20{opacity:0.41;fill:url(#XMLID_59_);}
	.st21{filter:url(#Adobe_OpacityMaskFilter);}
	.st22{fill:#020202;}
	.st23{opacity:0.41;mask:url(#XMLID_60_);}
	.st24{fill:#FFF6C8;}
	.st25{opacity:0.21;}
	.st26{fill:#FDFDFE;}
	.st27{fill:url(#XMLID_164_);}
	.st28{fill:url(#XMLID_165_);}

	.elementToFadeInAndOut {
		opacity: 1;
		animation: fade 10s infinite;
	}


	@keyframes fade {
	  0%,100% { opacity: 0.2 }
	  50% { opacity: 1 }
	}
</style>
<symbol  id="sparkle" viewBox="-5.4 -5.4 10.8 10.8" class="img-float-1">
	<path id="XMLID_50_" class="st0 elementToFadeInAndOut" d="M4.8,0.7H0.7v4.1c0,0.4-0.3,0.7-0.7,0.7c-0.4,0-0.7-0.3-0.7-0.7V0.7h-4.1
		c-0.4,0-0.7-0.3-0.7-0.7s0.3-0.7,0.7-0.7h4.1v-4.1c0-0.4,0.3-0.7,0.7-0.7c0.4,0,0.7,0.3,0.7,0.7v4.1h4.1c0.4,0,0.7,0.3,0.7,0.7
		S5.1,0.7,4.8,0.7z"/>
</symbol>
<symbol  id="stars" viewBox="-4.3 -3.8 8.6 7.6">
	<path id="XMLID_49_" class="st0 elementToFadeInAndOut" d="M4.3,0c0-2.1-1.9-3.8-4.3-3.8S-4.3-2.1-4.3,0S-2.4,3.8,0,3.8S4.3,2.1,4.3,0z"/>
</symbol>
<rect id="XMLID_38_" class="st1" width="1920" height="1080"/>
<line id="XMLID_19_" class="st2" x1="1025.8" y1="273.5" x2="1025.8" y2="269.7"/>
<g id="XMLID_33_">
	<g id="XMLID_30_">
		<path id="XMLID_16_" class="st3" d="M432.3,522c0,0,67.7,3.6,67.4,34.7c-0.3,31.1,0,83.2,12,98.1c12,14.9-8,20.3-8,20.3l-55-94.4
			l-31.5-19C417.2,561.7,421.3,519.9,432.3,522z"/>
		<path id="XMLID_18_" class="st3" d="M359.7,522c0,0-67.7,3.6-67.4,34.7c0.3,31.1,0,83.2-12,98.1s8,20.3,8,20.3l55-94.4l31.5-19
			C374.8,561.7,370.7,519.9,359.7,522z"/>
		<rect id="XMLID_22_" x="355.9" y="623" class="st0" width="81.8" height="238"/>
		<path id="XMLID_21_" class="st4" d="M358.6,612c-35.2,30.8,7.5,34.9,49,162c0,0-4.9-40.2,18-85.7c24-47.7,16.8-53.4,8.6-76.3"/>
		<path id="XMLID_23_" class="st5" d="M358.6,612c-19.4,46.3,49,54.6,46,96c0,0-1.7-77,29.6-96H358.6z"/>
		<line id="XMLID_17_" class="st6" x1="396.7" y1="327.2" x2="396.7" y2="269.7"/>
		<path id="XMLID_10_" class="st7" d="M434.3,612c66.1-90.6,55.8-208.7-37.6-288c-94.6,79.3-105.1,197.4-38.1,288H434.3z"/>
		<path id="XMLID_12_" class="st8" d="M396.7,324C396.7,324,396.7,324,396.7,324c-94.7,79.3-105.1,197.4-38.1,288h38.1V324z"/>
		<path id="XMLID_11_" class="st3" d="M432.3,361c-2.5-3.2-5.1-6.4-7.8-9.5c-8.3,2.2-17.8,3.4-27.8,3.4c-10.1,0-19.7-1.3-28.1-3.5
			c-2.7,3.1-5.4,6.3-7.9,9.5c10.8,2.7,23.1,4.3,36,4.3C409.5,365.1,421.5,363.6,432.3,361z"/>
		<path id="XMLID_13_" class="st3" d="M459.4,568.5c3-6.9,5.6-13.9,7.8-20.9c-20.8,1.7-44.8,2.7-70.5,2.7c-26.1,0-50.5-1-71.5-2.8
			c2.3,7,4.9,14,7.9,20.9c19.5,1.6,41,2.5,63.5,2.5C418.9,570.9,440.1,570,459.4,568.5z"/>
		<g id="XMLID_3_">
			<path id="XMLID_171_" class="st3" d="M396.7,452.7c-14,0-25.4-11.6-25.4-25.9s11.4-25.9,25.4-25.9s25.4,11.6,25.4,25.9
				S410.7,452.7,396.7,452.7z"/>
			<path id="XMLID_168_" class="st9" d="M396.7,404c12.4,0,22.4,10.3,22.4,22.9s-10.1,22.9-22.4,22.9c-12.4,0-22.4-10.3-22.4-22.9
				S384.4,404,396.7,404 M396.7,398c-15.7,0-28.4,12.9-28.4,28.9c0,15.9,12.7,28.9,28.4,28.9c15.7,0,28.4-12.9,28.4-28.9
				C425.2,410.9,412.4,398,396.7,398L396.7,398z"/>
		</g>
		<line id="XMLID_9_" class="st10" x1="381.7" y1="485" x2="411.7" y2="485"/>
		<line id="XMLID_15_" class="st10" x1="381.8" y1="496.7" x2="411.7" y2="496.7"/>
		<g id="XMLID_14_">
			<path id="XMLID_167_" class="st3" d="M410.1,534.2c0,6.7-13.9,133.5-13.9,133.5s-13.9-126.8-13.9-133.5s6.2-12.2,13.9-12.2
				C403.9,522,410.1,527.4,410.1,534.2z"/>
		</g>
		<ellipse id="XMLID_20_" class="st11" cx="403.2" cy="419.9" rx="4.3" ry="3.9"/>
		<path id="XMLID_37_" class="st0" d="M818.9,1080H-2.8c4.9-9.2,11.7-17.1,20-23.2c-1.5-4.1-2.3-8.6-2.3-13.2
			c0-21.4,17.4-38.8,38.8-38.8c0.2,0,0.3,0,0.5,0c3.3-22.1,22.3-39,45.3-39c7.5,0,14.5,1.8,20.8,5c13.5-33.7,46.5-57.5,85-57.5
			c13.7,0,26.7,3,38.4,8.4c8.7-18.7,27-32.1,48.5-33.7c4-8.6,11.8-15.2,21.3-17.4c-5.7-5.8-9.3-13.8-9.3-22.6
			c0-17.8,14.4-32.3,32.3-32.3c4.6,0,8.9,1,12.8,2.7c2.3-2,4.8-3.6,7.5-5c2.4-10.5,11.7-18.3,22.9-18.3c1.6,0,3.1,0.2,4.7,0.5
			c3-5.6,9-9.5,15.8-9.5c9.1,0,16.6,6.8,17.7,15.5c8.6,1.7,15.9,7,20.1,14.3c13.8,1,26,7.8,34.3,17.9c8.2,3,14.4,10.1,16,18.9
			c3.1-0.6,6.4-1,9.7-1c25.6,0,46.7,19.4,49.2,44.4c20,6.3,34.5,25,34.5,47c0,0.8,0,1.5-0.1,2.2c14,5.1,24,18.6,24,34.4
			c0,2-0.2,3.9-0.5,5.8c8-3.7,17-5.8,26.4-5.8c34.6,0,62.6,28,62.6,62.6c0,0.4,0,0.9,0,1.3c0.3,0,0.5,0,0.8,0
			c16.8,0,30.4,13.4,30.7,30.1c4-7.3,11.7-12.3,20.6-12.3c9.9,0,18.4,6.2,21.8,14.9c6.2-1.3,12.5-2,19.1-2
			C798.3,1074.4,809,1076.4,818.9,1080z"/>
		<path id="XMLID_34_" class="st5" d="M603.7,1080H146.4c4-16.1,18.6-28,35.9-28c5.7,0,11.1,1.3,15.9,3.6c3.5-2.3,7.6-3.6,12.1-3.6
			c3.7,0,7.2,0.9,10.2,2.5c8.6-10.1,21.4-16.5,35.8-16.5c13.7,0,26,5.8,34.6,15.2c7.6-16,24-27.2,42.9-27.2
			c13.6,0,25.9,5.7,34.5,14.9c5.4-11.8,17.2-19.9,31-19.9c10.5,0,19.8,4.7,26.1,12.2c10.1-15.2,27.4-25.2,47-25.2
			c26.6,0,48.8,18.3,54.9,43c5.4-3.8,12-6.1,19.1-6.1c13.9,0,25.8,8.6,30.6,20.7c2.1-0.8,4.4-1.2,6.8-1.2
			C593.4,1064.5,601.5,1071.1,603.7,1080z"/>
	</g>
	<ellipse id="XMLID_24_" class="st0" cx="305.4" cy="735.7" rx="4.3" ry="3.3"/>
	<circle id="XMLID_25_" class="st0" cx="295" cy="766.3" r="7.3"/>
	<circle id="XMLID_26_" class="st0" cx="325.2" cy="790.2" r="2.8"/>
	<circle id="XMLID_27_" class="st0" cx="328.2" cy="755.1" r="5.5"/>
	<circle id="XMLID_28_" class="st0" cx="325.7" cy="696.3" r="3.3"/>
	<circle id="XMLID_29_" class="st0" cx="338.2" cy="723.5" r="4.5"/>
	<ellipse id="XMLID_31_" class="st0" cx="491.4" cy="779.3" rx="3.7" ry="3"/>
	<circle id="XMLID_32_" class="st0" cx="489.7" cy="744.3" r="5.3"/>
	<ellipse id="XMLID_36_" class="st0" cx="525.7" cy="766.3" rx="2.7" ry="0"/>
	<circle id="XMLID_39_" class="st0" cx="524.8" cy="801.2" r="1.8"/>
	<circle id="XMLID_45_" class="st0" cx="459.7" cy="744.3" r="5.3"/>
	<circle id="XMLID_46_" class="st0" cx="476.1" cy="708.6" r="2.3"/>
	<circle id="XMLID_47_" class="st0" cx="468.6" cy="804.6" r="5.2"/>
</g>
<use xlink:href="#stars"  width="8.6" height="7.6" id="XMLID_99_" x="-4.3" y="-3.8" transform="matrix(1 0 0 -1 164.439 118.2577)" style="overflow:visible;"/>
<use xlink:href="#stars"  width="8.6" height="7.6" id="XMLID_98_" x="-4.3" y="-3.8" transform="matrix(1 0 0 -1 322.9926 168.4329)" style="overflow:visible;"/>
<use xlink:href="#stars"  width="8.6" height="7.6" id="XMLID_97_" x="-4.3" y="-3.8" transform="matrix(1 0 0 -1 93.8649 615.8148)" style="overflow:visible;"/>
<use xlink:href="#stars"  width="8.6" height="7.6" id="XMLID_96_" x="-4.3" y="-3.8" transform="matrix(1 0 0 -1 1266.9854 505.0324)" style="overflow:visible;"/>
<use xlink:href="#stars"  width="8.6" height="7.6" id="XMLID_95_" x="-4.3" y="-3.8" transform="matrix(1 0 0 -1 1379.1595 946.1217)" style="overflow:visible;"/>
<use xlink:href="#stars"  width="8.6" height="7.6" id="XMLID_94_" x="-4.3" y="-3.8" transform="matrix(1 0 0 -1 947.5762 866.6827)" style="overflow:visible;"/>
<use xlink:href="#stars"  width="8.6" height="7.6" id="XMLID_93_" x="-4.3" y="-3.8" transform="matrix(1 0 0 -1 947.5762 532.7457)" style="overflow:visible;"/>
<use xlink:href="#stars"  width="8.6" height="7.6" id="XMLID_92_" x="-4.3" y="-3.8" transform="matrix(1 0 0 -1 755.9169 178.7137)" style="overflow:visible;"/>
<use xlink:href="#stars"  width="8.6" height="7.6" id="XMLID_91_" x="-4.3" y="-3.8" transform="matrix(1 0 0 -1 1047.8706 76.5268)" style="overflow:visible;"/>
<use xlink:href="#stars"  width="8.6" height="7.6" id="XMLID_90_" x="-4.3" y="-3.8" transform="matrix(1 0 0 -1 1426.0409 279.3477)" style="overflow:visible;"/>
<use xlink:href="#stars"  width="8.6" height="7.6" id="XMLID_89_" x="-4.3" y="-3.8" transform="matrix(1 0 0 -1 1167.5474 630.3549)" style="overflow:visible;"/>
<use xlink:href="#stars"  width="8.6" height="7.6" id="XMLID_88_" x="-4.3" y="-3.8" transform="matrix(1 0 0 -1 1455.8739 819.0847)" style="overflow:visible;"/>
<use xlink:href="#stars"  width="8.6" height="7.6" id="XMLID_87_" x="-4.3" y="-3.8" transform="matrix(1 0 0 -1 1556.4141 921.3435)" style="overflow:visible;"/>
<use xlink:href="#stars"  width="8.6" height="7.6" id="XMLID_86_" x="-4.3" y="-3.8" transform="matrix(1 0 0 -1 1716.8835 692.2747)" style="overflow:visible;"/>
<use xlink:href="#stars"  width="8.6" height="7.6" id="XMLID_85_" x="-4.3" y="-3.8" transform="matrix(1 0 0 -1 1739.203 313.3174)" style="overflow:visible;"/>
<use xlink:href="#stars"  width="8.6" height="7.6" id="XMLID_84_" x="-4.3" y="-3.8" transform="matrix(1 0 0 -1 1809.2791 435.9783)" style="overflow:visible;"/>
<use xlink:href="#stars"  width="8.6" height="7.6" id="XMLID_83_" x="-4.3" y="-3.8" transform="matrix(1 0 0 -1 1811.0187 834.7769)" style="overflow:visible;"/>
<use xlink:href="#stars"  width="8.6" height="7.6" id="XMLID_82_" x="-4.3" y="-3.8" transform="matrix(1 0 0 -1 1634.3761 341.6785)" style="overflow:visible;"/>
<use xlink:href="#stars"  width="8.6" height="7.6" id="XMLID_81_" x="-4.3" y="-3.8" transform="matrix(1 0 0 -1 1560.2559 146.5716)" style="overflow:visible;"/>
<use xlink:href="#stars"  width="8.6" height="7.6" id="XMLID_80_" x="-4.3" y="-3.8" transform="matrix(1 0 0 -1 1696.9529 148.6135)" style="overflow:visible;"/>
<use xlink:href="#stars"  width="8.6" height="7.6" id="XMLID_79_" x="-4.3" y="-3.8" transform="matrix(1 0 0 -1 1337.7892 168.6921)" style="overflow:visible;"/>
<use xlink:href="#stars"  width="8.6" height="7.6" id="XMLID_78_" x="-4.3" y="-3.8" transform="matrix(1 0 0 -1 1396.0132 473.8625)" style="overflow:visible;"/>
<use xlink:href="#stars"  width="8.6" height="7.6" id="XMLID_77_" x="-4.3" y="-3.8" transform="matrix(1 0 0 -1 1516.4506 720.2959)" style="overflow:visible;"/>
<use xlink:href="#stars"  width="8.6" height="7.6" id="XMLID_76_" x="-4.3" y="-3.8" transform="matrix(1 0 0 -1 1071.1108 275.5328)" style="overflow:visible;"/>
<use xlink:href="#stars"  width="8.6" height="7.6" id="XMLID_75_" x="-4.3" y="-3.8" transform="matrix(1 0 0 -1 695.2304 106.0611)" style="overflow:visible;"/>
<use xlink:href="#stars"  width="8.6" height="7.6" id="XMLID_74_" x="-4.3" y="-3.8" transform="matrix(1 0 0 -1 660.0002 423.7498)" style="overflow:visible;"/>
<use xlink:href="#stars"  width="8.6" height="7.6" id="XMLID_73_" x="-4.3" y="-3.8" transform="matrix(1 0 0 -1 612.3111 570.0165)" style="overflow:visible;"/>
<use xlink:href="#stars"  width="8.6" height="7.6" id="XMLID_72_" x="-4.3" y="-3.8" transform="matrix(1 0 0 -1 1034.5894 812.1599)" style="overflow:visible;"/>
<use xlink:href="#stars"  width="8.6" height="7.6" id="XMLID_71_" x="-4.3" y="-3.8" transform="matrix(1 0 0 -1 1234.8352 374.5541)" style="overflow:visible;"/>
<use xlink:href="#stars"  width="8.6" height="7.6" id="XMLID_70_" x="-4.3" y="-3.8" transform="matrix(1 0 0 -1 57.648 198.8887)" style="overflow:visible;"/>
<use xlink:href="#stars"  width="8.6" height="7.6" id="XMLID_69_" x="-4.3" y="-3.8" transform="matrix(1 0 0 -1 747.9088 289.5477)" style="overflow:visible;"/>
<use xlink:href="#stars"  width="8.6" height="7.6" id="XMLID_68_" x="-4.3" y="-3.8" transform="matrix(1 0 0 -1 102.4486 822.8997)" style="overflow:visible;"/>
<use xlink:href="#stars"  width="8.6" height="7.6" id="XMLID_67_" x="-4.3" y="-3.8" transform="matrix(1 0 0 -1 983.3076 781.1487)" style="overflow:visible;"/>
<use xlink:href="#stars"  width="8.6" height="7.6" id="XMLID_66_" x="-4.3" y="-3.8" transform="matrix(1 0 0 -1 699.5222 787.3331)" style="overflow:visible;"/>
<use xlink:href="#stars"  width="8.6" height="7.6" id="XMLID_65_" x="-4.3" y="-3.8" transform="matrix(1 0 0 -1 1532.0677 376.7919)" style="overflow:visible;"/>
<use xlink:href="#stars"  width="8.6" height="7.6" id="XMLID_64_" x="-4.3" y="-3.8" transform="matrix(1 0 0 -1 965.7166 709.2137)" style="overflow:visible;"/>
<use xlink:href="#stars"  width="8.6" height="7.6" id="XMLID_63_" x="-4.3" y="-3.8" transform="matrix(1 0 0 -1 1167.5474 748.3246)" style="overflow:visible;"/>
<use xlink:href="#stars"  width="8.6" height="7.6" id="XMLID_62_" x="-4.3" y="-3.8" transform="matrix(1 0 0 -1 601.3939 327.2148)" style="overflow:visible;"/>
<use xlink:href="#stars"  width="8.6" height="7.6" id="XMLID_58_" x="-4.3" y="-3.8" transform="matrix(1 0 0 -1 795 656.1851)" style="overflow:visible;"/>
<use xlink:href="#stars"  width="8.6" height="7.6" id="XMLID_55_" x="-4.3" y="-3.8" transform="matrix(1 0 0 -1 1335.7668 682.481)" style="overflow:visible;"/>
<use xlink:href="#sparkle"  width="10.8" height="10.8" id="XMLID_133_" x="-5.4" y="-5.4" transform="matrix(1 0 0 -1 283.8588 177.9771)" style="overflow:visible;"/>
<use xlink:href="#sparkle"  width="10.8" height="10.8" id="XMLID_132_" x="-5.4" y="-5.4" transform="matrix(1 0 0 -1 480.9961 87.0158)" style="overflow:visible;"/>
<use xlink:href="#sparkle"  width="10.8" height="10.8" id="XMLID_131_" x="-5.4" y="-5.4" transform="matrix(1 0 0 -1 983.002 130.0304)" style="overflow:visible;"/>
<use xlink:href="#sparkle"  width="10.8" height="10.8" id="XMLID_130_" x="-5.4" y="-5.4" transform="matrix(1 0 0 -1 1419.6598 216.4634)" style="overflow:visible;"/>
<use xlink:href="#sparkle"  width="10.8" height="10.8" id="XMLID_129_" x="-5.4" y="-5.4" transform="matrix(1 0 0 -1 1616.1233 302.7029)" style="overflow:visible;"/>
<use xlink:href="#sparkle"  width="10.8" height="10.8" id="XMLID_128_" x="-5.4" y="-5.4" transform="matrix(1 0 0 -1 1796.7725 210.6717)" style="overflow:visible;"/>
<use xlink:href="#sparkle"  width="10.8" height="10.8" id="XMLID_127_" x="-5.4" y="-5.4" transform="matrix(1 0 0 -1 1794.531 87.6644)" style="overflow:visible;"/>
<use xlink:href="#sparkle"  width="10.8" height="10.8" id="XMLID_126_" x="-5.4" y="-5.4" transform="matrix(1 0 0 -1 1467.9312 95.465)" style="overflow:visible;"/>
<use xlink:href="#sparkle"  width="10.8" height="10.8" id="XMLID_124_" x="-5.4" y="-5.4" transform="matrix(1 0 0 -1 147.3537 117.7307)" style="overflow:visible;"/>
<use xlink:href="#sparkle"  width="10.8" height="10.8" id="XMLID_123_" x="-5.4" y="-5.4" transform="matrix(1 0 0 -1 88.4479 323.2585)" style="overflow:visible;"/>
<use xlink:href="#sparkle"  width="10.8" height="10.8" id="XMLID_122_" x="-5.4" y="-5.4" transform="matrix(1 0 0 -1 64.6752 67.4034)" style="overflow:visible;"/>
<use xlink:href="#sparkle"  width="10.8" height="10.8" id="XMLID_121_" x="-5.4" y="-5.4" transform="matrix(1 0 0 -1 219.5307 470.1253)" style="overflow:visible;"/>
<use xlink:href="#sparkle"  width="10.8" height="10.8" id="XMLID_120_" x="-5.4" y="-5.4" transform="matrix(1 0 0 -1 500.8111 431.7598)" style="overflow:visible;"/>
<use xlink:href="#sparkle"  width="10.8" height="10.8" id="XMLID_119_" x="-5.4" y="-5.4" transform="matrix(1 0 0 -1 533.165 256.9204)" style="overflow:visible;"/>
<use xlink:href="#sparkle"  width="10.8" height="10.8" id="XMLID_118_" x="-5.4" y="-5.4" transform="matrix(1 0 0 -1 581.7636 159.729)" style="overflow:visible;"/>
<use xlink:href="#sparkle"  width="10.8" height="10.8" id="XMLID_117_" x="-5.4" y="-5.4" transform="matrix(1 0 0 -1 344.5471 113.0209)" style="overflow:visible;"/>
<use xlink:href="#sparkle"  width="10.8" height="10.8" id="XMLID_116_" x="-5.4" y="-5.4" transform="matrix(1 0 0 -1 1363.3301 345.5282)" style="overflow:visible;"/>
<use xlink:href="#sparkle"  width="10.8" height="10.8" id="XMLID_115_" x="-5.4" y="-5.4" transform="matrix(1 0 0 -1 1666.3428 441.5158)" style="overflow:visible;"/>
<use xlink:href="#sparkle"  width="10.8" height="10.8" id="XMLID_114_" x="-5.4" y="-5.4" transform="matrix(1 0 0 -1 1141.3339 109.5096)" style="overflow:visible;"/>
<use xlink:href="#sparkle"  width="10.8" height="10.8" id="XMLID_113_" x="-5.4" y="-5.4" transform="matrix(1 0 0 -1 1175.4984 198.9457)" style="overflow:visible;"/>
<use xlink:href="#sparkle"  width="10.8" height="10.8" id="XMLID_112_" x="-5.4" y="-5.4" transform="matrix(1 0 0 -1 1441.3798 459.3159)" style="overflow:visible;"/>
<use xlink:href="#sparkle"  width="10.8" height="10.8" id="XMLID_111_" x="-5.4" y="-5.4" transform="matrix(1 0 0 -1 1395.5146 979.5516)" style="overflow:visible;"/>
<use xlink:href="#sparkle"  width="10.8" height="10.8" id="XMLID_110_" x="-5.4" y="-5.4" transform="matrix(1 0 0 -1 916.4165 1001.0002)" style="overflow:visible;"/>
<use xlink:href="#sparkle"  width="10.8" height="10.8" id="XMLID_109_" x="-5.4" y="-5.4" transform="matrix(1 0 0 -1 1551.5181 868.2162)" style="overflow:visible;"/>
<use xlink:href="#sparkle"  width="10.8" height="10.8" id="XMLID_108_" x="-5.4" y="-5.4" transform="matrix(1 0 0 -1 1748.1193 952.2111)" style="overflow:visible;"/>
<use xlink:href="#sparkle"  width="10.8" height="10.8" id="XMLID_107_" x="-5.4" y="-5.4" transform="matrix(1 0 0 -1 1539.606 566.0258)" style="overflow:visible;"/>
<use xlink:href="#sparkle"  width="10.8" height="10.8" id="XMLID_106_" x="-5.4" y="-5.4" transform="matrix(1 0 0 -1 1844.7767 537.6174)" style="overflow:visible;"/>
<use xlink:href="#sparkle"  width="10.8" height="10.8" id="XMLID_105_" x="-5.4" y="-5.4" transform="matrix(1 0 0 -1 815.5511 310.9603)" style="overflow:visible;"/>
<use xlink:href="#sparkle"  width="10.8" height="10.8" id="XMLID_104_" x="-5.4" y="-5.4" transform="matrix(1 0 0 -1 743.6169 559.1718)" style="overflow:visible;"/>
<use xlink:href="#sparkle"  width="10.8" height="10.8" id="XMLID_103_" x="-5.4" y="-5.4" transform="matrix(1 0 0 -1 1320.3121 886.7111)" style="overflow:visible;"/>
<use xlink:href="#sparkle"  width="10.8" height="10.8" id="XMLID_102_" x="-5.4" y="-5.4" transform="matrix(1 0 0 -1 1058.6554 644.7575)" style="overflow:visible;"/>
<use xlink:href="#sparkle"  width="10.8" height="10.8" id="XMLID_100_" x="-5.4" y="-5.4" transform="matrix(1 0 0 -1 845.6564 448.4332)" style="overflow:visible;"/>
<linearGradient id="XMLID_2_" gradientUnits="userSpaceOnUse" x1="1530.0768" y1="593.5241" x2="1521.5675" y2="662.8266" gradientTransform="matrix(0.9986 5.374856e-002 -5.374856e-002 0.9986 26.6052 -76.6062)">
	<stop  offset="0" style="stop-color:#FFF6C8;stop-opacity:0.3"/>
	<stop  offset="1" style="stop-color:#FFF6C8;stop-opacity:0"/>
</linearGradient>
<path id="XMLID_53_" class="st12" d="M1703.7,681.7c1.2-22.6-19.2-42-45.7-43.5c-15.7-0.8-29.9,4.8-39.2,14.3
	c-13.7-5-31.1-8.5-50.3-9.5c-0.1,0-0.2,0-0.3,0c-2.9-27.7-55.3-52.4-120.9-55.9c-68.4-3.7-125.1,17-126.7,46.2"/>
<linearGradient id="XMLID_4_" gradientUnits="userSpaceOnUse" x1="1185.2472" y1="954.0661" x2="1169.9756" y2="1039.9648">
	<stop  offset="0" style="stop-color:#FFF6C8;stop-opacity:0.3"/>
	<stop  offset="1" style="stop-color:#FFF6C8;stop-opacity:0"/>
</linearGradient>
<path id="XMLID_101_" class="st13 " d="M1295.4,1001.3c0-18.2-14.8-33-33-33c-16.3,0-29.8,11.8-32.5,27.3c-4.8-4.5-11.3-7.3-18.5-7.3
	c-4.1,0-7.9,0.9-11.4,2.5c-2.2-22.7-21.3-40.5-44.6-40.5c-23.3,0-42.4,17.8-44.6,40.5c-5.7-4-12.7-6.4-20.2-6.4
	c-19.4,0-35.2,15.7-35.2,35.2"/>
<linearGradient id="XMLID_5_" gradientUnits="userSpaceOnUse" x1="728.0439" y1="470.4573" x2="728.0439" y2="470.4573">
	<stop  offset="0" style="stop-color:#FFF6C8;stop-opacity:0.3"/>
	<stop  offset="1" style="stop-color:#FFF6C8;stop-opacity:0"/>
</linearGradient>
<path id="XMLID_56_" class="st14" d="M728,470.5"/>
<linearGradient id="XMLID_6_" gradientUnits="userSpaceOnUse" x1="677.7053" y1="474.5453" x2="677.7053" y2="474.5453">
	<stop  offset="0" style="stop-color:#FFF6C8;stop-opacity:0.3"/>
	<stop  offset="1" style="stop-color:#FFF6C8;stop-opacity:0"/>
</linearGradient>
<path id="XMLID_54_" class="st15" d="M677.7,474.5"/>
<linearGradient id="XMLID_7_" gradientUnits="userSpaceOnUse" x1="1084.5988" y1="432.0638" x2="1072.8408" y2="498.1992">
	<stop  offset="0" style="stop-color:#FFF6C8;stop-opacity:0.3"/>
	<stop  offset="1" style="stop-color:#FFF6C8;stop-opacity:0"/>
</linearGradient>
<path id="XMLID_135_" class="st16" d="M1164,488.3c0-9.9-10.8-17.8-24.2-17.8c-1.6,0-3.2,0.1-4.8,0.3c0-0.1,0-0.2,0-0.3
	c0-19.7-17.5-35.7-39.1-35.7c-16.8,0-31.1,9.7-36.6,23.3c-7.4-9.5-19-15.6-31.9-15.6c-22.4,0-40.5,18.1-40.5,40.5"/>
<linearGradient id="XMLID_8_" gradientUnits="userSpaceOnUse" x1="270.5166" y1="1016.6421" x2="270.5166" y2="1016.6421">
	<stop  offset="0" style="stop-color:#FFF6C8;stop-opacity:0.3"/>
	<stop  offset="1" style="stop-color:#FFF6C8;stop-opacity:0"/>
</linearGradient>
<path id="XMLID_134_" class="st17" d="M270.5,1016.6"/>
<linearGradient id="XMLID_51_" gradientUnits="userSpaceOnUse" x1="1631.6343" y1="183.3926" x2="1620.0642" y2="248.4706">
	<stop  offset="0" style="stop-color:#FFF6C8;stop-opacity:0.3"/>
	<stop  offset="1" style="stop-color:#FFF6C8;stop-opacity:0"/>
</linearGradient>
<path id="XMLID_136_" class="st18" d="M1773.3,242.3c0-12.8-13.3-23.2-29.8-23.2c-3.1,0-6.1,0.4-8.9,1
	c-2.4-14.1-20.8-25.1-43.2-25.1c-15.3,0-28.7,5.1-36.5,12.9c-9-1.7-18.8-2.7-29.1-2.7c-20.7,0-39.4,3.8-53.4,10.1
	c-3.4-24.2-24.2-42.8-49.3-42.8c-27.5,0-49.8,22.3-49.8,49.8"/>
<linearGradient id="XMLID_52_" gradientUnits="userSpaceOnUse" x1="265.5366" y1="256.8817" x2="246.3078" y2="365.0389" gradientTransform="matrix(0.9905 0.1377 -0.1377 0.9905 45.2492 -32.2734)">
	<stop  offset="0" style="stop-color:#FFFFFF;stop-opacity:0.9"/>
	<stop  offset="8.430076e-002" style="stop-color:#FFFEF7;stop-opacity:0.8241"/>
	<stop  offset="0.6911" style="stop-color:#FFF8D5;stop-opacity:0.278"/>
	<stop  offset="1" style="stop-color:#FFF6C8;stop-opacity:0"/>
</linearGradient>
<circle id="XMLID_137_" class="st19" cx="255.9" cy="311" r="54.9"/>
<linearGradient id="XMLID_59_" gradientUnits="userSpaceOnUse" x1="265.5366" y1="256.8817" x2="246.3078" y2="365.0389" gradientTransform="matrix(0.9905 0.1377 -0.1377 0.9905 45.2492 -32.2734)">
	<stop  offset="0" style="stop-color:#FFFFFF;stop-opacity:0.9"/>
	<stop  offset="8.430076e-002" style="stop-color:#FFFEF7;stop-opacity:0.8241"/>
	<stop  offset="0.6911" style="stop-color:#FFF8D5;stop-opacity:0.278"/>
	<stop  offset="1" style="stop-color:#FFF6C8;stop-opacity:0"/>
</linearGradient>
<circle id="XMLID_139_" class="st20" cx="255.9" cy="311" r="54.9"/>
<defs>
	<filter id="Adobe_OpacityMaskFilter" filterUnits="userSpaceOnUse" x="169.5" y="292.8" width="172.8" height="36.4">
		<feFlood  style="flood-color:white;flood-opacity:1" result="back"/>
		<feBlend  in="SourceGraphic" in2="back" mode="normal"/>
	</filter>
</defs>
<mask maskUnits="userSpaceOnUse" x="169.5" y="292.8" width="172.8" height="36.4" id="XMLID_60_">
	<g id="XMLID_125_" class="st21">
		<path id="XMLID_152_" class="st22" d="M310.7,314.4c1.9-28.5-18.5-54-47.2-58c-29-4-55.8,15.4-61.4,43.7
			C237.4,310.1,274.4,311.7,310.7,314.4z"/>
	</g>
</mask>
<g id="XMLID_138_" class="st23">
	<path id="XMLID_140_" class="st24" d="M254.9,296.9c0.3,0,0.7,0.1,1,0.1C255.5,297,255.2,296.9,254.9,296.9z"/>
	<path id="XMLID_141_" class="st24" d="M259.8,297.6c0.3,0,0.7,0.1,1,0.1C260.4,297.7,260.1,297.6,259.8,297.6z"/>
	<path id="XMLID_142_" class="st24" d="M261.5,297.8c35.5,5.2,63.1,12.9,62.5,17.6c-0.7,4.8-31.4,4.5-68.6-0.6s-66.8-13.3-66.2-18.1
		c0.6-4.7,29.4-4.6,64.9,0.1c-46-6.1-83.5-5.2-84.5,2.2c-1,7.5,36.8,19,84.5,25.7s87.2,5.9,88.3-1.7
		C343.3,315.6,307.5,304.5,261.5,297.8z"/>
	<path id="XMLID_143_" class="st24" d="M260.8,297.7c0.3,0,0.5,0.1,0.8,0.1C261.3,297.8,261,297.8,260.8,297.7z"/>
	<path id="XMLID_144_" class="st24" d="M254.1,296.8c0.3,0,0.5,0.1,0.8,0.1C254.6,296.9,254.4,296.8,254.1,296.8z"/>
	<path id="XMLID_145_" class="st24" d="M257.8,297.3c0.7,0.1,1.3,0.2,2,0.3C259.1,297.5,258.5,297.4,257.8,297.3z"/>
	<path id="XMLID_146_" class="st24" d="M255.9,297c0.7,0.1,1.3,0.2,2,0.3C257.2,297.2,256.5,297.1,255.9,297z"/>
</g>
<g id="Satelite" class="st25">
	<g id="XMLID_148_">
		<path id="XMLID_163_" class="st8" d="M1299.9,112.6c6.4-7.6,17.7-8.6,25.3-2.3c7.6,6.4,8.6,17.7,2.3,25.3L1299.9,112.6z"/>
	</g>
	<g id="XMLID_147_">
		<path id="XMLID_162_" class="st26" d="M1327.5,135.6c-14.7-10.4-27.6-23-27.6-23L1327.5,135.6z"/>
	</g>
	<g id="XMLID_149_">
		<path id="XMLID_159_" class="st8" d="M1306.6,131.9l12.5-15c0.2-0.2,0.5-0.2,0.7-0.1s0.2,0.5,0.1,0.7l-12.5,15
			c-0.2,0.2-0.5,0.2-0.7,0.1S1306.4,132.1,1306.6,131.9z"/>
	</g>
	<g id="XMLID_151_">
		<path id="XMLID_158_" class="st8" d="M1318.4,116.3l12.5-15c0.5-0.6,1.4-0.7,2-0.2c0.6,0.5,0.7,1.4,0.2,2l-12.5,15
			c-0.5,0.6-1.4,0.7-2,0.2S1317.9,116.9,1318.4,116.3z"/>
	</g>
	<g id="XMLID_150_">

			<rect id="XMLID_161_" x="1322.3" y="79.9" transform="matrix(0.6413 -0.7673 0.7673 0.6413 412.3338 1062.1617)" class="st8" width="39.6" height="20.5"/>
	</g>
	<g id="XMLID_154_">

			<rect id="XMLID_157_" x="1341.1" y="56.4" transform="matrix(-0.6413 0.7673 -0.7673 -0.6413 2271.9395 -881.9724)" class="st8" width="2.1" height="67.3"/>
	</g>
	<g id="XMLID_153_">

			<rect id="XMLID_160_" x="1367.3" y="93" transform="matrix(-0.6413 0.7673 -0.7673 -0.6413 2344.5464 -862.7484)" class="st8" width="13.2" height="47.3"/>
	</g>
	<g id="XMLID_156_">

			<rect id="XMLID_155_" x="1303.6" y="39.8" transform="matrix(-0.6413 0.7673 -0.7673 -0.6413 2199.0789 -901.2636)" class="st8" width="13.2" height="47.3"/>
	</g>
</g>
<use xlink:href="#stars"  width="8.6" height="7.6" id="XMLID_43_" x="-4.3" y="-3.8" transform="matrix(1 0 0 -1 818.9374 779.3331)" style="overflow:visible;"/>
<use xlink:href="#sparkle"  width="10.8" height="10.8" id="XMLID_42_" x="-5.4" y="-5.4" transform="matrix(1 0 0 -1 796.3021 952.2111)" style="overflow:visible;"/>
<linearGradient id="XMLID_164_" gradientUnits="userSpaceOnUse" x1="846.6409" y1="911.2356" x2="846.6409" y2="911.2356">
	<stop  offset="0" style="stop-color:#FFF6C8;stop-opacity:0.3"/>
	<stop  offset="1" style="stop-color:#FFF6C8;stop-opacity:0"/>
</linearGradient>
<path id="XMLID_41_" class="st27" d="M846.6,911.2"/>
<linearGradient id="XMLID_165_" gradientUnits="userSpaceOnUse" x1="796.3023" y1="915.3237" x2="796.3023" y2="915.3237">
	<stop  offset="0" style="stop-color:#FFF6C8;stop-opacity:0.3"/>
	<stop  offset="1" style="stop-color:#FFF6C8;stop-opacity:0"/>
</linearGradient>
<path id="XMLID_40_" class="st28" d="M796.3,915.3"/>
</svg>
